<svg width="300" height="48" viewBox="0 0 300 48" fill="none" xmlns="http://www.w3.org/2000/svg">
<path d="M139.732 30.0143C139.612 29.7984 139.679 29.5297 139.885 29.3858C142.74 27.3946 144.703 24.1847 144.703 19.7513C144.703 11.2347 139.602 7.14194 130.323 7.14194H112.047C111.783 7.14194 111.567 7.35785 111.567 7.62175V40.3925C111.567 40.6564 111.783 40.8723 112.047 40.8723H121.163C121.427 40.8723 121.643 40.6564 121.643 40.3925V32.1974C121.643 31.9335 121.859 31.7176 122.123 31.7176H130.591C130.769 31.7176 130.932 31.8136 131.019 31.9719L135.644 40.618C135.725 40.7764 135.893 40.8723 136.071 40.8723H144.885C145.25 40.8723 145.485 40.4789 145.307 40.1574L139.727 30.0095L139.732 30.0143ZM129.68 24.1271H121.648V15.5338H129.68C132.895 15.5338 134.622 17.0595 134.622 19.8328C134.622 22.6061 132.895 24.1319 129.68 24.1319V24.1271Z" fill="#160747"/>
<path d="M167.354 6.01453C155.949 6.01453 148.44 13.2836 148.44 24.0073C148.44 34.7309 155.949 42 167.354 42C178.759 42 186.273 34.7309 186.273 24.0073C186.273 13.2836 178.764 6.01453 167.354 6.01453ZM167.354 33.2867C162.412 33.2867 158.44 29.7937 158.44 24.0073C158.44 18.2208 162.417 14.7278 167.354 14.7278C172.292 14.7278 176.269 18.2208 176.269 24.0073C176.269 29.7937 172.292 33.2867 167.354 33.2867Z" fill="#160747"/>
<path d="M236.811 7.13714H227.56C227.325 7.13714 227.129 7.30508 227.085 7.53059L223.05 29.712C223.007 29.9423 222.81 30.1055 222.575 30.1055H222.474C222.249 30.1055 222.057 29.9519 222.004 29.7312L216.798 7.5018C216.746 7.28588 216.554 7.12755 216.328 7.12755H208.977C208.752 7.12755 208.56 7.28109 208.507 7.5018L203.301 29.7312C203.249 29.9471 203.057 30.1055 202.831 30.1055H202.73C202.495 30.1055 202.299 29.9375 202.255 29.712L198.22 7.53059C198.177 7.30028 197.98 7.13714 197.745 7.13714H188.495C188.187 7.13714 187.962 7.41543 188.024 7.71771L194.737 40.4885C194.785 40.714 194.982 40.8723 195.207 40.8723H208.037C208.263 40.8723 208.464 40.714 208.507 40.4885L212.12 23.3402C212.168 23.1195 212.365 22.9564 212.59 22.9564H212.691C212.917 22.9564 213.113 23.1147 213.161 23.3402L216.774 40.4885C216.822 40.7092 217.019 40.8723 217.245 40.8723H230.075C230.305 40.8723 230.502 40.7092 230.545 40.4885L237.257 7.71771C237.32 7.42023 237.089 7.13714 236.787 7.13714H236.811Z" fill="#160747"/>
<path d="M105.905 22.5197H88.9155C88.6516 22.5197 88.4357 22.7356 88.4357 22.9995V27.6968C88.4357 27.9607 88.6516 28.1766 88.9155 28.1766H96.626C95.5033 32.5141 91.1226 33.277 88.9155 33.277C83.8152 33.277 79.9191 29.5441 79.9191 23.9975C79.9191 18.451 83.7768 14.7181 89.1554 14.7181C92.5716 14.7181 94.9995 16.2966 95.9783 18.2926C96.0598 18.4606 96.2278 18.5709 96.4149 18.5709H105.526C105.829 18.5709 106.064 18.2926 106.001 17.9952C104.279 9.53137 96.578 6 88.9587 6C77.4721 6 69.92 13.2691 69.92 23.9927C69.92 34.7164 77.7936 41.9855 88.1142 41.9855C93.5217 41.9855 98.6796 38.6748 100.263 35.3354V40.3781C100.263 40.642 100.479 40.8579 100.743 40.8579H105.905C106.169 40.8579 106.385 40.642 106.385 40.3781V23.0043C106.385 22.7404 106.169 22.5245 105.905 22.5245V22.5197Z" fill="#160747"/>
<g opacity="0.75">
<path d="M246.781 7.13733H242.698C242.433 7.13733 242.218 7.35215 242.218 7.61714V23.5275C242.218 23.7925 242.433 24.0073 242.698 24.0073H246.781C247.046 24.0073 247.261 23.7925 247.261 23.5275V7.61714C247.261 7.35215 247.046 7.13733 246.781 7.13733Z" fill="#160747"/>
<path d="M262.826 7.13733C262.562 7.13733 262.346 7.35325 262.346 7.61714V16.9974H261.886L255.682 7.35805C255.595 7.2189 255.442 7.13733 255.279 7.13733H250.221C249.958 7.13733 249.742 7.35325 249.742 7.61714V23.5275C249.742 23.7914 249.958 24.0073 250.221 24.0073H254.18C254.444 24.0073 254.66 23.7914 254.66 23.5275V14.1473H255.101L261.444 23.7914C261.535 23.9258 261.684 24.0073 261.847 24.0073H266.789C267.053 24.0073 267.269 23.7914 267.269 23.5275V7.61714C267.269 7.35325 267.053 7.13733 266.789 7.13733H262.826Z" fill="#160747"/>
<path d="M286.97 17.3188H283.059C282.848 17.3188 282.671 17.458 282.599 17.6595C281.994 19.4108 280.622 20.2121 278.827 20.2121C276.356 20.2121 274.428 18.3456 274.428 15.5723C274.428 12.7991 276.356 10.9326 278.827 10.9326C280.622 10.9326 281.989 11.7339 282.599 13.4468C282.671 13.6435 282.848 13.7827 283.059 13.7827H286.97C287.272 13.7827 287.498 13.5092 287.445 13.2117C286.591 8.19771 282.666 6.57117 278.832 6.57117C273.209 6.57117 269.433 10.2081 269.433 15.5675C269.433 20.927 273.209 24.5639 278.832 24.5639C282.709 24.5639 286.6 22.9374 287.45 17.885C287.498 17.5875 287.277 17.314 286.975 17.314L286.97 17.3188Z" fill="#160747"/>
<path d="M292.243 19.2668C290.837 19.2668 289.671 20.4328 289.671 21.7954C289.671 23.6907 291.845 25.1301 293.836 23.8202C293.874 23.7962 293.908 23.7674 293.941 23.7338C295.832 21.7666 294.272 19.262 292.243 19.262V19.2668Z" fill="#160747"/>
</g>
<path d="M21.9168 0.0912024C9.6384 1.1424 0 11.448 0 24C0 36.552 9.6384 46.8576 21.9168 47.9088C23.0352 48.0048 24 47.1168 24 45.9936V2.0064C24 0.883202 23.0352 -0.00959762 21.9168 0.0912024Z" fill="#1E85FF"/>
<path d="M48 27.84H29.616C28.5556 27.84 27.696 28.6996 27.696 29.76V46.08C27.696 47.1404 28.5556 48 29.616 48H48C49.0604 48 49.92 47.1404 49.92 46.08V29.76C49.92 28.6996 49.0604 27.84 48 27.84Z" fill="#1E85FF"/>
<path d="M29.616 0C28.5552 0 27.696 0.8592 27.696 1.92V22.08C27.696 23.1408 28.5552 24 29.616 24H48C49.0608 24 49.92 23.1408 49.92 22.08V20.304C49.92 9.0912 40.8288 0 29.616 0Z" fill="#1E85FF"/>
</svg>
